<svg xmlns="http://www.w3.org/2000/svg" width="101.054" height="92.5" viewBox="0 0 101.054 92.5"><defs><style>.a{fill:#0b123f;}</style></defs><g transform="translate(-884.123 -42)"><path class="a" d="M914.282,74.781c.259.014.52.016.779.046a31.437,31.437,0,0,0,9.388.03,8.858,8.858,0,0,0,2.6-.98,96.563,96.563,0,0,1,18.58-7.914,42.553,42.553,0,0,1,16.857-1.548c2.976.311,5.917.928,8.874,1.424a4.982,4.982,0,0,1,.919.353c-.02.1-.047.193-.067.289a2.206,2.206,0,0,1-.587-.006,18.078,18.078,0,0,0-10.909.5c-3.173,1-6.53,1.422-9.693,2.446-3.451,1.118-6.793,2.594-10.151,3.994a30.9,30.9,0,0,1-9.544,2.05c-2.432.2-4.867.5-7.3.474-3.029-.032-6.054-.345-9.08-.556a2.6,2.6,0,0,1-.7-.265C914.256,75,914.27,74.891,914.282,74.781Z" transform="translate(-9.931 -7.309)"/><path class="a" d="M913.576,83.689c1.365.229,2.725.5,4.1.681a38.533,38.533,0,0,0,13.714-.9,20.821,20.821,0,0,0,8.273-4.038A30.638,30.638,0,0,1,958.7,72.816c2.825-.018,5.659.825,8.48,1.325,2,.353,3.988.771,5.974,1.191a8.386,8.386,0,0,1,1.233.462c-.013.1-.034.209-.054.313a2.269,2.269,0,0,1-.67-.008c-4.435-1.446-8.875-1.125-13.336-.121-2.4.54-4.856.878-7.251,1.452a11.142,11.142,0,0,0-5.133,3.006,10.924,10.924,0,0,1-9.752,3.012,9.382,9.382,0,0,0-3.537.436c-6.765,1.739-13.548,2.221-20.385.458a6.079,6.079,0,0,1-.814-.341C913.5,83.894,913.537,83.792,913.576,83.689Z" transform="translate(-9.672 -10.16)"/><path class="a" d="M1026.234,167.1v-9.932h2.715v15.207a15.055,15.055,0,0,1-2.2-.034,1.565,1.565,0,0,1-.851-.706c-1.984-3.01-3.941-6.036-5.912-9.059a4.751,4.751,0,0,0-.369-.42v10.138h-2.728V157.116a14.538,14.538,0,0,1,2.172.034c.315.048.637.422.845.725,2.058,3.076,4.1,6.166,6.14,9.255C1026.107,167.118,1026.167,167.11,1026.234,167.1Z" transform="translate(-43.772 -37.945)"/><path class="a" d="M929.654,172.3V156.925c2.767.142,5.5.142,8.184.472a4.812,4.812,0,0,1,3.687,3.231,9.808,9.808,0,0,1-.133,8.431,5.341,5.341,0,0,1-4.724,3.219C934.374,172.4,932.068,172.3,929.654,172.3Zm2.787-2.386a25.756,25.756,0,0,0,4.171-.3,3.546,3.546,0,0,0,1.965-1.5,6.743,6.743,0,0,0,.526-5.615,3.235,3.235,0,0,0-2.207-2.53,34.761,34.761,0,0,0-4.455-.426Z" transform="translate(-15.011 -37.89)"/><path class="a" d="M970.97,166.395v5.968h-2.717V157.329c2.652,0,5.289-.153,7.9.048a4.069,4.069,0,0,1,3.671,3.685,4.476,4.476,0,0,1-2.546,4.767c-.149.074-.289.158-.568.313l3.739,6.277c-1.119,0-2.09.036-3.058-.028-.211-.014-.444-.355-.586-.592-.857-1.432-1.735-2.853-2.514-4.325-.422-.8-.9-1.249-1.852-1.093A9.584,9.584,0,0,1,970.97,166.395Zm.046-2.622c1.48,0,2.91.086,4.323-.03a1.887,1.887,0,0,0,1.649-1.964,1.84,1.84,0,0,0-1.667-2.018c-1.406-.167-2.831-.163-4.305-.235Z" transform="translate(-27.737 -38.005)"/><path class="a" d="M914.8,93.861c.265.044.536.07.8.139a35.885,35.885,0,0,0,19.961-.707,17.226,17.226,0,0,0,3.693-2.141c1.669-1.04,3.267-2.2,4.982-3.159a9.578,9.578,0,0,1,5.273-1.355c3,.193,5.793-.819,8.67-1.367a36.955,36.955,0,0,1,16.5.347,5.983,5.983,0,0,1,.945.434l-.1.3c-1.059-.2-2.112-.42-3.171-.6a34.206,34.206,0,0,0-13.626.556c-1.073.255-2.127.578-3.191.861a14.219,14.219,0,0,0-5.934,3.391,24.846,24.846,0,0,1-4.442,3.2,8.2,8.2,0,0,1-5.182.8,19.727,19.727,0,0,0-6.548.532,37.6,37.6,0,0,1-17.755-.508c-.333-.1-.652-.241-.977-.361C914.731,94.1,914.765,93.982,914.8,93.861Z" transform="translate(-10.08 -14.015)"/><path class="a" d="M976.4,95.614c-1.139-.133-2.279-.281-3.418-.4a38.219,38.219,0,0,0-15.672,2.064,16.194,16.194,0,0,0-7.018,4.265,10.189,10.189,0,0,1-9.053,3.323,30.458,30.458,0,0,0-7.959.51,35.037,35.037,0,0,1-14.2-.871c-.265-.074-.516-.2-.773-.3l.042-.289a3.24,3.24,0,0,1,.766.008,34.134,34.134,0,0,0,17.341-.317,11.745,11.745,0,0,0,4.116-2.147,18.8,18.8,0,0,1,11.373-4.341,28.788,28.788,0,0,0,6.211-1.426,37.794,37.794,0,0,1,17.456-.715c.295.06.576.173.865.259Z" transform="translate(-11.271 -17.237)"/><path class="a" d="M967.98,56.239c-.745-.072-1.488-.165-2.235-.211-8.58-.542-16.556,1.036-23.626,6.307a22.1,22.1,0,0,1-16.258,4.233c-1.484-.171-3-.082-4.5-.126-1.3-.038-2.6-.086-3.9-.157a3,3,0,0,1-.721-.231c.014-.1.026-.193.04-.289.308-.02.615-.046.922-.058,1.87-.07,3.739-.12,5.608-.217a3.145,3.145,0,0,0,1.452-.319c3.7-2.3,7.875-3.211,11.992-4.353,3.821-1.058,7.568-2.377,11.359-3.544a45.982,45.982,0,0,1,18.315-1.785c.548.056,1.086.2,1.628.307C968.03,55.946,968,56.093,967.98,56.239Z" transform="translate(-10.754 -4.366)"/><path class="a" d="M916.975,172.258a.666.666,0,0,1-.155.07c-2.636.259-2.681.273-3.448-2.2-.285-.914-.694-1.277-1.672-1.194a33.672,33.672,0,0,1-3.51.014c-.5-.01-.848.072-.922.646a3.4,3.4,0,0,1-.235.659c-.841,2.366-.841,2.366-3.576,2.024.633-1.843,1.253-3.669,1.884-5.49,1.026-2.965,2.076-5.921,3.076-8.9a1.011,1.011,0,0,1,1.147-.808c2.223.016,2.241-.016,2.982,2.117q2.139,6.15,4.237,12.313C916.865,171.765,916.913,172.02,916.975,172.258Zm-4.852-5.813c-.645-2.112-1.241-4.07-1.916-6.281-.688,2.239-1.3,4.223-1.93,6.281Z" transform="translate(-6.374 -37.943)"/><path class="a" d="M1004.182,172.372c-.918,0-1.716.028-2.507-.018-.2-.012-.4-.243-.576-.4-.067-.056-.06-.187-.1-.279-.315-.875-.389-2.107-1.012-2.53-.677-.456-1.863-.176-2.822-.18-2.55-.012-2.593-.018-3.341,2.4a1.207,1.207,0,0,1-1.492,1.024,16.128,16.128,0,0,0-1.725-.012c.1-.361.159-.636.251-.9,1.548-4.476,3.111-8.945,4.639-13.43a1.155,1.155,0,0,1,1.325-.96c2.167.064,2.154.02,2.871,2.127q2.061,6.012,4.136,12.014C1003.941,171.563,1004.042,171.909,1004.182,172.372Zm-4.947-5.924c-.617-2.06-1.207-4.032-1.884-6.295l-1.931,6.295Z" transform="translate(-35.107 -37.942)"/><path class="a" d="M925.84,114.54c.556.048,1.113.084,1.667.149a32.4,32.4,0,0,0,13.088-1.042,8.9,8.9,0,0,0,3.039-1.849,14.8,14.8,0,0,1,10.21-3.958c2.347.064,4.4-1,6.568-1.6a44.9,44.9,0,0,1,15.852-1.695c.315.028.63.095.945.143.007.116.013.233.027.349a8.545,8.545,0,0,1-1.086.058,35.472,35.472,0,0,0-21.041,5.152,13.219,13.219,0,0,0-1.881,1.492,10.187,10.187,0,0,1-7.659,2.9c-3.377-.243-6.636.781-9.963.867-2.987.076-5.988-.2-8.979-.345a3.444,3.444,0,0,1-.816-.245C925.82,114.787,925.83,114.663,925.84,114.54Z" transform="translate(-13.744 -20.575)"/><path class="a" d="M884.123,159.61v-2.392H895.7v2.372H891.38V172.34h-2.771c-.016-.333-.046-.684-.046-1.038,0-3.543-.016-7.082.016-10.624.008-.8-.2-1.143-1.06-1.089C886.428,159.664,885.326,159.61,884.123,159.61Z" transform="translate(0 -37.986)"/><path class="a" d="M955.848,157.173h2.642v15.164h-2.642Z" transform="translate(-23.647 -37.972)"/><path class="a" d="M962,47.059a3.394,3.394,0,0,1-.641.11A37.158,37.158,0,0,0,949.3,49.378c-5.263,1.7-10.45,3.659-15.757,5.2-3.632,1.056-7.413,1.6-11.132,2.353a3.731,3.731,0,0,1-.894-.032c-.012-.127-.024-.253-.038-.38.779-.131,1.556-.263,2.335-.39a71.686,71.686,0,0,0,14.56-4.261,78.894,78.894,0,0,1,18.379-5.006c1.484-.2,3-.2,4.5-.271a3.433,3.433,0,0,1,.8.153C962.029,46.85,962.012,46.954,962,47.059Z" transform="translate(-12.316 -1.515)"/><path class="a" d="M937.163,124.221c1.548-.143,3.1-.227,4.645-.436A61.77,61.77,0,0,0,955.257,120a105.058,105.058,0,0,1,19.528-5.458c.944-.16,1.91-.2,2.866-.293l.054.436c-.552.113-1.1.255-1.657.333a63.942,63.942,0,0,0-14.144,3.93,83.647,83.647,0,0,1-17.054,5.026c-2.17.343-4.373.5-6.564.7a4.806,4.806,0,0,1-1.178-.186C937.127,124.4,937.145,124.314,937.163,124.221Z" transform="translate(-17.468 -23.821)"/><path class="a" d="M977.4,124.671c-1.684,1.8-16.443,6.632-18.48,6.084Z" transform="translate(-24.661 -27.256)"/><path class="a" d="M932.446,48.1A89.724,89.724,0,0,1,950.918,42c.044.135.088.267.134.4l-18.474,6.084C932.532,48.355,932.488,48.227,932.446,48.1Z" transform="translate(-15.932)"/></g></svg>